<?xml version="1.0" encoding="UTF-8" standalone="no"?>
<!DOCTYPE svg PUBLIC "-//W3C//DTD SVG 1.1//EN" "http://www.w3.org/Graphics/SVG/1.1/DTD/svg11.dtd">
<svg width="100%" height="100%" viewBox="0 0 240 440" version="1.1" xmlns="http://www.w3.org/2000/svg" xmlns:xlink="http://www.w3.org/1999/xlink" xml:space="preserve" xmlns:serif="http://www.serif.com/" style="fill-rule:evenodd;clip-rule:evenodd;">
    <g transform="matrix(11.578947,0,0,11.578947,4.210526,0)">
        <path d="M10,2C14.5,5.5 17,11.5 17,19C17,26.5 14.5,32.5 10,36C5.5,32.5 3,26.5 3,19C3,11.5 5.5,5.5 10,2Z" style="fill:none;fill-rule:nonzero;stroke:black;stroke-width:0.85px;"/>
    </g>
    <g transform="matrix(11.578947,0,0,11.578947,4.210526,0)">
        <path d="M10,2L7.5,4.5M10,2L12.5,4.5" style="fill:none;fill-rule:nonzero;stroke:black;stroke-width:0.6px;stroke-linecap:round;"/>
    </g>
    <g transform="matrix(11.578947,0,0,11.578947,4.210526,0)">
        <path d="M10,36L7.5,33.5M10,36L12.5,33.5" style="fill:none;fill-rule:nonzero;stroke:black;stroke-width:0.6px;stroke-linecap:round;"/>
    </g>
    <g transform="matrix(11.578947,0,0,11.578947,4.210526,0)">
        <circle cx="1.8" cy="19" r="0.85"/>
    </g>
    <g transform="matrix(11.578947,0,0,11.578947,4.210526,0)">
        <circle cx="18.2" cy="19" r="0.85"/>
    </g>
    <g transform="matrix(11.578947,0,0,11.578947,4.210526,0)">
        <path d="M10,5.5C13.5,8.5 15.5,13 15.5,19C15.5,25 13.5,29.5 10,32.5C6.5,29.5 4.5,25 4.5,19C4.5,13 6.5,8.5 10,5.5Z" style="fill:none;fill-rule:nonzero;stroke:black;stroke-width:0.5px;"/>
    </g>
    <g transform="matrix(11.578947,0,0,11.578947,4.210526,10)">
        <circle cx="10" cy="11.5" r="1.7" style="fill:none;stroke:black;stroke-width:0.65px;"/>
    </g>
    <g transform="matrix(11.578947,0,0,11.578947,4.210526,10)">
        <circle cx="10" cy="11.5" r="0.6"/>
    </g>
    <g transform="matrix(11.578947,0,0,11.578947,4.210526,13)">
        <path d="M10,13.2L10,17" style="fill:none;fill-rule:nonzero;stroke:black;stroke-width:0.9px;stroke-linecap:round;"/>
    </g>
    <g transform="matrix(11.578947,0,0,11.578947,4.210526,13)">
        <path d="M6.5,17.5C7.5,16.5 8.5,17 10,17C11.5,17 12.5,16.5 13.5,17.5" style="fill:none;fill-rule:nonzero;stroke:black;stroke-width:1.1px;stroke-linecap:round;"/>
    </g>
    <g transform="matrix(11.578947,0,0,11.578947,4.210526,13)">
        <circle cx="6.5" cy="17.5" r="0.85"/>
    </g>
    <g transform="matrix(11.578947,0,0,11.578947,4.210526,13)">
        <circle cx="13.5" cy="17.5" r="0.85"/>
    </g>
    <g transform="matrix(14.078947,0,0,14.078947,-19.664474,-38.25)">
        <path d="M9.279,18.429L9.15,24L10,26.5L10.85,24L10.579,18.429L9.279,18.429Z" style="fill-rule:nonzero;"/>
    </g>
</svg>
